<svg xmlns="http://www.w3.org/2000/svg" viewBox="-0.8 -0.8 16 16" id="Layout-5-Fill--Streamline-Mingcute-Fill" height="16" width="16" style="background-color: #ffffff"><desc>Layout 5 Fill Streamline Icon: https://streamlinehq.com</desc><g fill="none" fill-rule="evenodd"><path d="M14.399999999999999 0v14.399999999999999H0V0h14.399999999999999ZM7.5558 13.954799999999999l-0.006599999999999999 0.0012 -0.04259999999999999 0.021 -0.012 0.0024 -0.0084 -0.0024 -0.04259999999999999 -0.021c-0.006 -0.0024 -0.011399999999999999 -0.0006 -0.0144 0.003l-0.0024 0.006 -0.0102 0.2568 0.003 0.012 0.006 0.0078 0.0624 0.044399999999999995 0.009 0.0024 0.0072 -0.0024 0.0624 -0.044399999999999995 0.0072 -0.0096 0.0024 -0.0102 -0.0102 -0.2562c-0.0012 -0.006 -0.005399999999999999 -0.0102 -0.0102 -0.010799999999999999Zm0.159 -0.0678 -0.0078 0.0012 -0.111 0.055799999999999995 -0.006 0.006 -0.0018 0.006599999999999999 0.010799999999999999 0.258 0.003 0.0072 0.0048 0.0042 0.1206 0.055799999999999995c0.0072 0.0024 0.0138 0 0.0174 -0.0048l0.0024 -0.0084 -0.0204 -0.3684c-0.0018 -0.0072 -0.006 -0.012 -0.012 -0.013199999999999998Zm-0.429 0.0012a0.0138 0.0138 0 0 0 -0.0162 0.0036l-0.0036 0.0084 -0.0204 0.3684c0 0.0072 0.0042 0.012 0.0102 0.0144l0.009 -0.0012 0.1206 -0.055799999999999995 0.006 -0.0048 0.0024 -0.006599999999999999 0.0102 -0.258 -0.0018 -0.0072 -0.006 -0.006 -0.1104 -0.0552Z" stroke-width="0.6667"></path><path fill="#000000" d="M3 1.7999999999999998a1.2 1.2 0 0 0 -1.2 1.2v1.7999999999999998h10.799999999999999V3a1.2 1.2 0 0 0 -1.2 -1.2H3Zm9.6 4.2H1.7999999999999998v5.3999999999999995a1.2 1.2 0 0 0 1.2 1.2h8.4a1.2 1.2 0 0 0 1.2 -1.2v-5.3999999999999995ZM4.2 8.4a0.6 0.6 0 0 1 0.6 -0.6h4.8a0.6 0.6 0 1 1 0 1.2H4.8a0.6 0.6 0 0 1 -0.6 -0.6Zm0.6 1.2a0.6 0.6 0 1 0 0 1.2h4.8a0.6 0.6 0 1 0 0 -1.2H4.8Z" stroke-width="0.6667"></path></g></svg>