<svg xmlns="http://www.w3.org/2000/svg" viewBox="-0.8 -0.8 16 16" fill="#000000" id="Layout-Navbar--Streamline-Tabler-Filled" height="16" width="16" style="background-color: #ffffff"><desc>Layout Navbar Streamline Icon: https://streamlinehq.com</desc><path d="M10.799999999999999 1.7999999999999998a1.7999999999999998 1.7999999999999998 0 0 1 1.797 1.6944L12.6 3.5999999999999996v7.199999999999999a1.7999999999999998 1.7999999999999998 0 0 1 -1.6944 1.797L10.799999999999999 12.6H3.5999999999999996a1.7999999999999998 1.7999999999999998 0 0 1 -1.797 -1.6944L1.7999999999999998 10.799999999999999V3.5999999999999996a1.7999999999999998 1.7999999999999998 0 0 1 1.6944 -1.797L3.5999999999999996 1.7999999999999998h7.199999999999999zm0.6 3.5999999999999996H3v5.3999999999999995a0.6 0.6 0 0 0 0.5297999999999999 0.5958L3.5999999999999996 11.4h7.199999999999999a0.6 0.6 0 0 0 0.5958 -0.5297999999999999L11.4 10.799999999999999V5.3999999999999995z" stroke-width="0.6667"></path></svg>